{
	"asset":{
		"version":"2.0",
		"generator":"Maxon Cinema 4D 2024.1.0 (#200000219)"
	},
	"scenes":[{
		"nodes":[0,
		1,
		2]
	}],
	"nodes":[{
		"name":"FLOOR",
		"mesh":0,
		"translation":[0.0,
		-0.0010000000474974514,
		5.707289218902588],
		"rotation":[0.0,
		0.0,
		0.0,
		-1.0],
		"scale":[1.0,
		1.0,
		1.0]
	},
	{
		"name":"BACK",
		"mesh":1,
		"translation":[0.0,
		3.315549850463867,
		-0.48119887709617617],
		"rotation":[-0.7071067690849304,
		0.0,
		0.0,
		-0.7071067690849304],
		"scale":[1.0,
		1.0,
		1.0]
	},
	{
		"name":"Love_machine",
		"mesh":2
	}],
	"meshes":[{
		"name":"FLOOR",
		"primitives":[{
			"attributes":{
				"POSITION":1,
				"NORMAL":2,
				"TEXCOORD_0":3
			},
			"indices":0
		}]
	},
	{
		"name":"BACK",
		"primitives":[{
			"attributes":{
				"POSITION":5,
				"NORMAL":6,
				"TEXCOORD_0":7
			},
			"indices":4
		}]
	},
	{
		"name":"Love_machine",
		"primitives":[{
			"attributes":{
				"POSITION":9,
				"NORMAL":10,
				"TEXCOORD_0":11
			},
			"indices":8
		}]
	}],
	"accessors":[{
		"bufferView":0,
		"type":"SCALAR",
		"componentType":5123,
		"max":[440],
		"count":2400,
		"byteOffset":0,
		"min":[0]
	},
	{
		"bufferView":1,
		"type":"VEC3",
		"componentType":5126,
		"max":[12.84597396850586,
		0.0,
		6.188895225524902],
		"count":441,
		"byteOffset":0,
		"min":[-12.84597396850586,
		0.0,
		-6.1888957023620609]
	},
	{
		"bufferView":1,
		"type":"VEC3",
		"componentType":5126,
		"max":[0.0,
		1.0,
		0.0],
		"count":441,
		"byteOffset":12,
		"min":[0.0,
		1.0,
		0.0]
	},
	{
		"bufferView":1,
		"type":"VEC2",
		"componentType":5126,
		"max":[1.0,
		1.0],
		"count":441,
		"byteOffset":24,
		"min":[0.0,
		0.0]
	},
	{
		"bufferView":2,
		"type":"SCALAR",
		"componentType":5123,
		"max":[440],
		"count":2400,
		"byteOffset":0,
		"min":[0]
	},
	{
		"bufferView":3,
		"type":"VEC3",
		"componentType":5126,
		"max":[12.789790153503418,
		0.0,
		3.3369014263153078],
		"count":441,
		"byteOffset":0,
		"min":[-12.789789199829102,
		0.0,
		-3.3369014263153078]
	},
	{
		"bufferView":3,
		"type":"VEC3",
		"componentType":5126,
		"max":[0.0,
		1.0,
		0.0],
		"count":441,
		"byteOffset":12,
		"min":[0.0,
		1.0,
		0.0]
	},
	{
		"bufferView":3,
		"type":"VEC2",
		"componentType":5126,
		"max":[1.0,
		1.0],
		"count":441,
		"byteOffset":24,
		"min":[0.0,
		0.0]
	},
	{
		"bufferView":4,
		"type":"SCALAR",
		"componentType":5123,
		"max":[50969],
		"count":208488,
		"byteOffset":0,
		"min":[0]
	},
	{
		"bufferView":5,
		"type":"VEC3",
		"componentType":5126,
		"max":[1.2438135147094727,
		4.128605842590332,
		0.6555835008621216],
		"count":50970,
		"byteOffset":0,
		"min":[-1.2438135147094727,
		0.0,
		-0.6555835008621216]
	},
	{
		"bufferView":5,
		"type":"VEC3",
		"componentType":5126,
		"max":[1.0,
		1.0,
		1.0],
		"count":50970,
		"byteOffset":12,
		"min":[-1.0,
		-1.0,
		-1.0]
	},
	{
		"bufferView":5,
		"type":"VEC2",
		"componentType":5126,
		"max":[1.0,
		1.0],
		"count":50970,
		"byteOffset":24,
		"min":[0.0,
		0.0]
	}],
	"bufferViews":[{
		"buffer":0,
		"byteOffset":0,
		"byteLength":4800,
		"target":34963
	},
	{
		"buffer":0,
		"byteOffset":4800,
		"byteLength":14112,
		"target":34962,
		"byteStride":32
	},
	{
		"buffer":1,
		"byteOffset":0,
		"byteLength":4800,
		"target":34963
	},
	{
		"buffer":1,
		"byteOffset":4800,
		"byteLength":14112,
		"target":34962,
		"byteStride":32
	},
	{
		"buffer":2,
		"byteOffset":0,
		"byteLength":416976,
		"target":34963
	},
	{
		"buffer":2,
		"byteOffset":416976,
		"byteLength":1631040,
		"target":34962,
		"byteStride":32
	}],
	"buffers":[{
		"uri":"data:application/octet-stream;base64,",
		"byteLength":18912
	},
	{
		"uri":"data:application/octet-stream;base64,",
		"byteLength":18912
	},
	{
		"uri":"data:application/octet-stream;base64,",
		"byteLength":2048016
	}]
}